<svg xmlns="http://www.w3.org/2000/svg" xmlns:xlink="http://www.w3.org/1999/xlink" style="enable-background:new 0 0 512 512" id="Capa_1" width="512" height="512" x="0" y="0" version="1.1" viewBox="0 0 512 512" xml:space="preserve"><g><g><g><path fill="#FFFFFF47" d="M492,236H20c-11.046,0-20,8.954-20,20c0,11.046,8.954,20,20,20h472c11.046,0,20-8.954,20-20S503.046,236,492,236z" class="active-path" data-old_color="#000000" data-original="#000000"/></g></g><g><g><path fill="#FFFFFF47" d="M492,76H20C8.954,76,0,84.954,0,96s8.954,20,20,20h472c11.046,0,20-8.954,20-20S503.046,76,492,76z" class="active-path" data-old_color="#000000" data-original="#000000"/></g></g><g><g><path fill="#FFFFFF47" d="M492,396H20c-11.046,0-20,8.954-20,20c0,11.046,8.954,20,20,20h472c11.046,0,20-8.954,20-20 C512,404.954,503.046,396,492,396z" class="active-path" data-old_color="#000000" data-original="#000000"/></g></g></g></svg>